<svg width="168" height="48" viewBox="0 0 168 48" fill="none" xmlns="http://www.w3.org/2000/svg">
<rect width="168" height="48" rx="10" fill="black"/>
<path d="M40.1781 22.9771C40.148 19.7135 42.9189 18.1258 43.0456 18.0519C41.4763 15.8211 39.044 15.5163 38.1893 15.492C36.1465 15.2824 34.1649 16.6839 33.1242 16.6839C32.0628 16.6839 30.4603 15.5123 28.7332 15.5467C26.5107 15.5801 24.4315 16.8347 23.2912 18.783C20.9378 22.7554 22.693 28.593 24.9477 31.8039C26.0755 33.3765 27.3935 35.1323 29.1185 35.0705C30.8062 35.0027 31.4366 34.0215 33.4732 34.0215C35.4911 34.0215 36.0831 35.0705 37.8424 35.0311C39.6537 35.0027 40.794 33.4514 41.8824 31.8647C43.1858 30.0623 43.7092 28.2872 43.73 28.196C43.6874 28.1819 40.2124 26.8888 40.1781 22.9771Z" fill="white"/>
<path d="M36.8547 13.3798C37.7624 12.273 38.3835 10.7673 38.2111 9.23926C36.8973 9.29596 35.2543 10.1253 34.3082 11.2077C33.4711 12.1616 32.7234 13.7251 32.9165 15.1953C34.3923 15.3027 35.9076 14.4693 36.8547 13.3798Z" fill="white"/>
<path d="M59.8298 13.079C59.8298 14.2709 59.4631 15.168 58.731 15.7705C58.0528 16.3264 57.089 16.6049 55.8406 16.6049C55.2217 16.6049 54.692 16.5786 54.2485 16.5259V10.0139C54.827 9.92277 55.4501 9.87619 56.1231 9.87619C57.3123 9.87619 58.2086 10.1283 58.813 10.6326C59.4901 11.2027 59.8298 12.0178 59.8298 13.079ZM58.6821 13.1084C58.6821 12.3358 58.4724 11.7434 58.0528 11.3303C57.6332 10.9181 57.0205 10.7116 56.2135 10.7116C55.8708 10.7116 55.5789 10.7339 55.3369 10.7804V15.731C55.4709 15.7513 55.716 15.7604 56.0722 15.7604C56.9052 15.7604 57.548 15.5346 58.0009 15.083C58.4537 14.6313 58.6821 13.9731 58.6821 13.1084Z" fill="white"/>
<path d="M65.9147 14.12C65.9147 14.8541 65.6997 15.4556 65.2697 15.9275C64.819 16.4125 64.2218 16.6545 63.4761 16.6545C62.7575 16.6545 62.1852 16.4226 61.7584 15.9568C61.3325 15.492 61.1196 14.9057 61.1196 14.199C61.1196 13.4598 61.3388 12.8532 61.7791 12.3824C62.2195 11.9115 62.8115 11.6756 63.5571 11.6756C64.2758 11.6756 64.8533 11.9075 65.2905 12.3722C65.7059 12.8238 65.9147 13.4071 65.9147 14.12ZM64.7858 14.1544C64.7858 13.7139 64.6881 13.3362 64.4939 13.0213C64.2654 12.6406 63.9404 12.4502 63.5177 12.4502C63.0804 12.4502 62.7481 12.6406 62.5196 13.0213C62.3244 13.3362 62.2278 13.72 62.2278 14.1736C62.2278 14.6141 62.3254 14.9918 62.5196 15.3067C62.7554 15.6875 63.0836 15.8778 63.5073 15.8778C63.9227 15.8778 64.2488 15.6844 64.4835 15.2966C64.685 14.9756 64.7858 14.5949 64.7858 14.1544Z" fill="white"/>
<path d="M74.0736 11.7728L72.5417 16.5461H71.5447L70.9101 14.4734C70.7492 13.9559 70.6183 13.4415 70.5165 12.9312H70.4968C70.4023 13.4557 70.2714 13.9691 70.1032 14.4734L69.4291 16.5461H68.4207L66.9802 11.7728H68.0988L68.6523 14.042C68.7863 14.5787 68.8964 15.09 68.9846 15.5741H69.0044C69.0854 15.1751 69.2194 14.6668 69.4084 14.0521L70.1032 11.7738H70.9901L71.6558 14.0035C71.8168 14.5473 71.9477 15.0708 72.0484 15.5751H72.0785C72.1522 15.084 72.2634 14.5604 72.4108 14.0035L73.0049 11.7738H74.0736V11.7728Z" fill="white"/>
<path d="M79.7161 16.5462H78.6277V13.8121C78.6277 12.9697 78.2995 12.5484 77.641 12.5484C77.318 12.5484 77.0574 12.6639 76.8548 12.8958C76.6544 13.1276 76.5526 13.401 76.5526 13.7139V16.5451H75.4642V13.1367C75.4642 12.7175 75.4507 12.2629 75.4248 11.7708H76.3813L76.4322 12.517H76.4623C76.589 12.2852 76.778 12.0938 77.0262 11.9409C77.3212 11.7627 77.6514 11.6725 78.0128 11.6725C78.4698 11.6725 78.8499 11.8163 79.1521 12.1049C79.5281 12.4583 79.7161 12.9859 79.7161 13.6866V16.5462Z" fill="white"/>
<path d="M82.7175 16.5461H81.6301V9.58253H82.7175V16.5461Z" fill="white"/>
<path d="M89.1254 14.12C89.1254 14.8541 88.9104 15.4556 88.4805 15.9275C88.0297 16.4125 87.4315 16.6545 86.6869 16.6545C85.9672 16.6545 85.3949 16.4226 84.9691 15.9568C84.5433 15.492 84.3304 14.9057 84.3304 14.199C84.3304 13.4598 84.5495 12.8532 84.9899 12.3824C85.4302 11.9115 86.0222 11.6756 86.7669 11.6756C87.4866 11.6756 88.063 11.9075 88.5012 12.3722C88.9167 12.8238 89.1254 13.4071 89.1254 14.12ZM87.9955 14.1544C87.9955 13.7139 87.8978 13.3362 87.7036 13.0213C87.4762 12.6406 87.1501 12.4502 86.7284 12.4502C86.2902 12.4502 85.9578 12.6406 85.7304 13.0213C85.5351 13.3362 85.4385 13.72 85.4385 14.1736C85.4385 14.6141 85.5362 14.9918 85.7304 15.3067C85.9661 15.6875 86.2943 15.8778 86.718 15.8778C87.1335 15.8778 87.4585 15.6844 87.6932 15.2966C87.8958 14.9756 87.9955 14.5949 87.9955 14.1544Z" fill="white"/>
<path d="M94.393 16.5461H93.4157L93.3347 15.9963H93.3046C92.9702 16.4348 92.4935 16.6545 91.8745 16.6545C91.4123 16.6545 91.0384 16.5097 90.757 16.2221C90.5015 15.9609 90.3738 15.6358 90.3738 15.25C90.3738 14.6668 90.623 14.2222 91.1246 13.9144C91.6252 13.6066 92.3294 13.4557 93.236 13.4628V13.3737C93.236 12.7449 92.8975 12.431 92.2193 12.431C91.7364 12.431 91.3106 12.5494 90.9429 12.7844L90.7217 12.0877C91.1766 11.8133 91.7384 11.6756 92.401 11.6756C93.6805 11.6756 94.3224 12.3338 94.3224 13.6501V15.408C94.3224 15.8849 94.3463 16.2646 94.393 16.5461ZM93.263 14.9057V14.1696C92.0625 14.1493 91.4622 14.4703 91.4622 15.1316C91.4622 15.3807 91.5307 15.567 91.6709 15.6915C91.8111 15.8161 91.9898 15.8778 92.2027 15.8778C92.4415 15.8778 92.6648 15.8039 92.8684 15.6571C93.073 15.5093 93.1986 15.3219 93.2454 15.0921C93.2568 15.0404 93.263 14.9776 93.263 14.9057Z" fill="white"/>
<path d="M100.578 16.5461H99.6117L99.5609 15.7796H99.5307C99.2223 16.3629 98.6968 16.6545 97.9584 16.6545C97.3685 16.6545 96.8772 16.4287 96.4878 15.9771C96.0983 15.5254 95.9041 14.9392 95.9041 14.2192C95.9041 13.4466 96.1149 12.8208 96.5387 12.3429C96.9489 11.8973 97.4515 11.6746 98.0498 11.6746C98.7072 11.6746 99.1672 11.8902 99.429 12.3226H99.4497V9.58253H100.539V15.2601C100.539 15.7249 100.552 16.1533 100.578 16.5461ZM99.4497 14.5331V13.7372C99.4497 13.5995 99.4393 13.4881 99.4196 13.4031C99.3583 13.1479 99.2264 12.9332 99.026 12.7601C98.8235 12.5869 98.5794 12.4998 98.298 12.4998C97.8919 12.4998 97.5741 12.6568 97.3404 12.9717C97.1088 13.2866 96.9915 13.6886 96.9915 14.1797C96.9915 14.6516 97.1026 15.0343 97.3259 15.329C97.5616 15.6429 97.8794 15.7999 98.2772 15.7999C98.6345 15.7999 98.9201 15.6692 99.1371 15.407C99.3469 15.165 99.4497 14.8733 99.4497 14.5331Z" fill="white"/>
<path d="M109.886 14.12C109.886 14.8541 109.671 15.4556 109.241 15.9275C108.791 16.4125 108.194 16.6545 107.448 16.6545C106.73 16.6545 106.158 16.4226 105.73 15.9568C105.304 15.492 105.091 14.9057 105.091 14.199C105.091 13.4598 105.31 12.8532 105.751 12.3824C106.191 11.9115 106.783 11.6756 107.53 11.6756C108.247 11.6756 108.826 11.9075 109.262 12.3722C109.677 12.8238 109.886 13.4071 109.886 14.12ZM108.758 14.1544C108.758 13.7139 108.661 13.3362 108.466 13.0213C108.237 12.6406 107.913 12.4502 107.489 12.4502C107.053 12.4502 106.721 12.6406 106.491 13.0213C106.296 13.3362 106.199 13.72 106.199 14.1736C106.199 14.6141 106.297 14.9918 106.491 15.3067C106.727 15.6875 107.055 15.8778 107.479 15.8778C107.894 15.8778 108.221 15.6844 108.456 15.2966C108.657 14.9756 108.758 14.5949 108.758 14.1544Z" fill="white"/>
<path d="M115.738 16.5462H114.651V13.8121C114.651 12.9697 114.323 12.5484 113.663 12.5484C113.34 12.5484 113.08 12.6639 112.878 12.8958C112.677 13.1276 112.576 13.401 112.576 13.7139V16.5451H111.487V13.1367C111.487 12.7175 111.474 12.2629 111.448 11.7708H112.404L112.455 12.517H112.485C112.612 12.2852 112.801 12.0938 113.049 11.9409C113.345 11.7627 113.674 11.6725 114.036 11.6725C114.492 11.6725 114.872 11.8163 115.175 12.1049C115.552 12.4583 115.738 12.9859 115.738 13.6866V16.5462Z" fill="white"/>
<path d="M123.063 12.5677H121.865V14.8865C121.865 15.4758 122.078 15.7705 122.5 15.7705C122.695 15.7705 122.857 15.7543 122.985 15.7209L123.013 16.5259C122.798 16.6049 122.515 16.6444 122.167 16.6444C121.737 16.6444 121.403 16.5168 121.161 16.2616C120.918 16.0064 120.797 15.5771 120.797 14.9746V12.5677H120.082V11.7728H120.797V10.8979L121.864 10.584V11.7718H123.062V12.5677H123.063Z" fill="white"/>
<path d="M128.825 16.5461H127.736V13.8324C127.736 12.9767 127.408 12.5484 126.75 12.5484C126.246 12.5484 125.901 12.7965 125.712 13.2927C125.68 13.397 125.661 13.5246 125.661 13.6744V16.5451H124.574V9.58253H125.661V12.4593H125.682C126.024 11.9358 126.516 11.6746 127.152 11.6746C127.603 11.6746 127.976 11.8183 128.272 12.1069C128.641 12.4664 128.825 13.0011 128.825 13.7078V16.5461Z" fill="white"/>
<path d="M134.769 13.9336C134.769 14.124 134.754 14.284 134.729 14.4146H131.464C131.479 14.8865 131.635 15.246 131.937 15.4951C132.213 15.7178 132.569 15.8292 133.006 15.8292C133.488 15.8292 133.929 15.7543 134.326 15.6034L134.496 16.3406C134.032 16.537 133.485 16.6353 132.853 16.6353C132.095 16.6353 131.498 16.4175 131.066 15.9821C130.631 15.5467 130.416 14.9624 130.416 14.2293C130.416 13.5094 130.617 12.9099 131.021 12.432C131.443 11.9216 132.013 11.6664 132.732 11.6664C133.437 11.6664 133.971 11.9216 134.333 12.432C134.625 12.837 134.769 13.3382 134.769 13.9336ZM133.73 13.6592C133.739 13.3443 133.667 13.0729 133.52 12.8441C133.331 12.5494 133.043 12.4016 132.653 12.4016C132.298 12.4016 132.009 12.5454 131.787 12.834C131.607 13.0638 131.5 13.3382 131.464 13.6592H133.73Z" fill="white"/>
<path d="M64.6019 34.8447H62.2433L60.9514 30.8865H56.4607L55.23 34.8447H52.9337L57.3829 21.3691H60.1309L64.6019 34.8447ZM60.5619 29.2258L59.3935 25.7071C59.27 25.3476 59.0383 24.5011 58.6967 23.1685H58.6551C58.5191 23.7416 58.2999 24.5882 57.9988 25.7071L56.8511 29.2258H60.5619Z" fill="white"/>
<path d="M76.0437 29.8668C76.0437 31.5194 75.5857 32.8256 74.6697 33.7846C73.8492 34.6382 72.8304 35.0645 71.6143 35.0645C70.3015 35.0645 69.3585 34.6048 68.7842 33.6853H68.7426V38.804H66.5284V28.3267C66.5284 27.2878 66.5004 26.2215 66.4464 25.1279H68.3937L68.5173 26.668H68.5588C69.2972 25.5076 70.4178 24.9284 71.9217 24.9284C73.0973 24.9284 74.0788 25.381 74.8639 26.2873C75.6511 27.1946 76.0437 28.3874 76.0437 29.8668ZM73.788 29.9458C73.788 29.0001 73.5699 28.2204 73.1316 27.6067C72.6528 26.9668 72.0099 26.6468 71.204 26.6468C70.6577 26.6468 70.1613 26.825 69.7178 27.1764C69.2733 27.5308 68.9825 27.9935 68.8465 28.5667C68.7779 28.834 68.7437 29.0527 68.7437 29.2248V30.845C68.7437 31.5518 68.9659 32.1482 69.4104 32.6353C69.8549 33.1223 70.4324 33.3653 71.1427 33.3653C71.9767 33.3653 72.6258 33.0514 73.09 32.4257C73.5553 31.7989 73.788 30.9726 73.788 29.9458Z" fill="white"/>
<path d="M87.5063 29.8668C87.5063 31.5194 87.0483 32.8256 86.1312 33.7846C85.3118 34.6382 84.293 35.0645 83.0768 35.0645C81.7641 35.0645 80.8211 34.6048 80.2478 33.6853H80.2063V38.804H77.9921V28.3267C77.9921 27.2878 77.964 26.2215 77.91 25.1279H79.8573L79.9809 26.668H80.0224C80.7598 25.5076 81.8804 24.9284 83.3853 24.9284C84.5599 24.9284 85.5413 25.381 86.3286 26.2873C87.1127 27.1946 87.5063 28.3874 87.5063 29.8668ZM85.2505 29.9458C85.2505 29.0001 85.0314 28.2204 84.5931 27.6067C84.1144 26.9668 83.4736 26.6468 82.6666 26.6468C82.1193 26.6468 81.6239 26.825 81.1794 27.1764C80.7349 27.5308 80.4451 27.9935 80.3091 28.5667C80.2416 28.834 80.2063 29.0527 80.2063 29.2248V30.845C80.2063 31.5518 80.4285 32.1482 80.8709 32.6353C81.3154 33.1213 81.8929 33.3653 82.6053 33.3653C83.4393 33.3653 84.0884 33.0514 84.5526 32.4257C85.0179 31.7989 85.2505 30.9726 85.2505 29.9458Z" fill="white"/>
<path d="M100.322 31.0657C100.322 32.212 99.9139 33.1446 99.0945 33.8646C98.1941 34.6513 96.9406 35.0442 95.3298 35.0442C93.8425 35.0442 92.6503 34.7647 91.7478 34.2048L92.2608 32.4054C93.2329 32.9785 94.2995 33.2661 95.4616 33.2661C96.2956 33.2661 96.9447 33.0818 97.411 32.7153C97.8753 32.3487 98.1068 31.8566 98.1068 31.2429C98.1068 30.6961 97.9158 30.2354 97.5325 29.8618C97.1514 29.4881 96.5147 29.1408 95.6257 28.8198C93.2059 27.9399 91.997 26.6508 91.997 24.9557C91.997 23.848 92.4207 22.9397 93.2692 22.2329C94.1146 21.5251 95.2425 21.1717 96.6529 21.1717C97.9106 21.1717 98.9554 21.3853 99.7893 21.8116L99.2358 23.5715C98.4568 23.1584 97.5761 22.9518 96.5906 22.9518C95.8116 22.9518 95.203 23.1391 94.7669 23.5118C94.3982 23.8449 94.2133 24.251 94.2133 24.732C94.2133 25.2646 94.4241 25.7051 94.8479 26.0514C95.2165 26.3714 95.8864 26.7177 96.8585 27.0913C98.0477 27.5581 98.9211 28.1039 99.4829 28.7297C100.043 29.3534 100.322 30.1342 100.322 31.0657Z" fill="white"/>
<path d="M107.643 26.748H105.202V31.4657C105.202 32.6656 105.632 33.2651 106.494 33.2651C106.89 33.2651 107.218 33.2317 107.478 33.1648L107.539 34.8042C107.103 34.9632 106.529 35.0432 105.817 35.0432C104.943 35.0432 104.259 34.783 103.766 34.2635C103.275 33.743 103.028 32.8702 103.028 31.6439V26.746H101.574V25.1258H103.028V23.3467L105.202 22.7068V25.1258H107.643V26.748Z" fill="white"/>
<path d="M118.655 29.9063C118.655 31.3999 118.216 32.6261 117.342 33.5851C116.425 34.5723 115.208 35.0645 113.69 35.0645C112.228 35.0645 111.064 34.5916 110.196 33.6458C109.327 32.7001 108.893 31.5062 108.893 30.0673C108.893 28.5616 109.34 27.3282 110.236 26.3693C111.13 25.4094 112.337 24.9294 113.854 24.9294C115.317 24.9294 116.493 25.4023 117.381 26.3491C118.231 27.2675 118.655 28.4532 118.655 29.9063ZM116.357 29.9762C116.357 29.08 116.161 28.3115 115.763 27.6705C115.299 26.8949 114.635 26.508 113.776 26.508C112.886 26.508 112.209 26.8959 111.745 27.6705C111.347 28.3125 111.151 29.0932 111.151 30.0167C111.151 30.9128 111.347 31.6814 111.745 32.3214C112.224 33.097 112.893 33.4838 113.756 33.4838C114.601 33.4838 115.265 33.0889 115.744 32.3011C116.152 31.648 116.357 30.8713 116.357 29.9762Z" fill="white"/>
<path d="M125.852 27.0265C125.633 26.987 125.399 26.9668 125.154 26.9668C124.375 26.9668 123.773 27.2533 123.349 27.8275C122.98 28.3338 122.795 28.9737 122.795 29.7463V34.8447H120.582L120.603 28.188C120.603 27.068 120.575 26.0483 120.52 25.1289H122.449L122.53 26.988H122.591C122.825 26.3491 123.193 25.8347 123.698 25.4489C124.191 25.1016 124.724 24.9284 125.298 24.9284C125.503 24.9284 125.688 24.9426 125.852 24.9679V27.0265Z" fill="white"/>
<path d="M135.755 29.5266C135.755 29.9134 135.729 30.2395 135.674 30.5058H129.031C129.057 31.4657 129.378 32.1998 129.995 32.7061C130.555 33.1588 131.278 33.3856 132.167 33.3856C133.151 33.3856 134.048 33.2327 134.855 32.9259L135.202 34.4245C134.259 34.8255 133.146 35.025 131.861 35.025C130.316 35.025 129.103 34.5815 128.22 33.6954C127.339 32.8094 126.898 31.6196 126.898 30.1271C126.898 28.6618 127.308 27.4417 128.13 26.4686C128.989 25.4296 130.152 24.9102 131.614 24.9102C133.05 24.9102 134.138 25.4296 134.876 26.4686C135.461 27.2938 135.755 28.3145 135.755 29.5266ZM133.643 28.9666C133.658 28.3267 133.513 27.7738 133.213 27.307C132.83 26.7065 132.241 26.4068 131.449 26.4068C130.725 26.4068 130.136 26.6994 129.686 27.2867C129.318 27.7535 129.098 28.3135 129.031 28.9656H133.643V28.9666Z" fill="white"/>
</svg>
