<svg width="45" height="44" viewBox="0 0 45 44" fill="none" xmlns="http://www.w3.org/2000/svg">
<path d="M35.6072 -0.00683594H9.3868C4.47633 -0.00683594 0.5 3.96949 0.5 8.87996V35.1064C0.5 40.0117 4.47633 43.988 9.3868 43.988H35.6132C40.5185 43.988 44.5 40.0117 44.5 35.1012V8.87996C44.4948 3.96949 40.5185 -0.00683594 35.6072 -0.00683594ZM12.6645 34.8262C12.1145 35.7887 10.8881 36.1127 9.92562 35.5627C8.96313 35.0127 8.63914 33.7864 9.18914 32.8239L10.6191 30.3497C12.2356 29.8487 13.5496 30.2337 14.5895 31.4875L12.6645 34.8262ZM26.5666 29.4259H8.36414C7.25297 29.4259 6.36266 28.5347 6.36266 27.4236C6.36266 26.3132 7.25297 25.4221 8.36414 25.4221H13.4671L20.0009 14.0989L17.9599 10.5575C17.4108 9.59496 17.7348 8.3798 18.6973 7.81863C19.6598 7.26863 20.8749 7.59348 21.4361 8.55598L22.3101 10.1011L23.2013 8.56113C23.7513 7.59863 24.9776 7.27465 25.9401 7.82465C26.9026 8.37465 27.2266 9.60098 26.6766 10.5626L18.0923 25.4221H24.3012C26.3139 25.4221 27.4414 27.7871 26.5666 29.4259ZM36.372 29.4371H33.4794L35.4319 32.8239C35.9819 33.7864 35.657 35.0024 34.6945 35.5627C33.732 36.1127 32.5169 35.7887 31.9557 34.8262C28.6677 29.1234 26.1979 24.8557 24.5599 22.0129C22.8824 19.1203 24.0813 16.2164 25.2638 15.2316C26.5777 17.4866 28.5414 20.8906 31.1642 25.4332H36.372C37.4832 25.4332 38.3735 26.3244 38.3735 27.4347C38.3735 28.5459 37.4832 29.4371 36.372 29.4371Z" fill="black"/>
</svg>
