<svg width="157" height="78" viewBox="0 0 157 78" fill="none" xmlns="http://www.w3.org/2000/svg">
<path d="M76.9912 74.502V76.7324C76.7899 76.7313 76.5315 76.7301 76.2227 76.7285C75.4135 76.7243 74.2572 76.7193 72.8701 76.7129C70.0959 76.7 66.3964 76.6842 62.6973 76.6738C58.9985 76.6635 55.2988 76.6583 52.5234 76.666C51.1361 76.6699 49.978 76.6771 49.166 76.6885C49.0512 76.6901 48.9429 76.6935 48.8418 76.6953L57.3623 63.3838L76.9912 74.502ZM24.082 44.6104L24.3643 45.2676L8.94531 76.6807H0.700195V37.5381L6.55566 34.8779L24.082 44.6104ZM36.4434 76.624C36.3922 76.6239 36.3382 76.6241 36.2822 76.624C35.7124 76.6231 34.8982 76.622 33.9209 76.6211C31.966 76.6192 29.358 76.6175 26.7461 76.6201C24.1344 76.6228 21.5176 76.629 19.5459 76.6426C18.5604 76.6494 17.7338 76.6581 17.1494 76.6689C17.1079 76.6697 17.0675 76.6711 17.0283 76.6719L27.6465 54.2139L36.4434 76.624ZM76.9912 68.7783L60.1416 59.0186L76.9912 31.127V68.7783ZM47.5557 57.7764L44.043 63.1201L40.8545 54.0283L47.5557 57.7764ZM76.9893 9.62012L76.9902 11.5166L50.2275 53.6689L38.1572 46.8467L35.2031 38.1973L44.46 18.3496L74.6592 5.19238L76.9893 9.62012ZM21.3242 37.4697L12.2451 32.3916L18.3975 29.6738L21.3242 37.4697ZM32.0557 29.3115L30.3086 24.4033L35.4102 22.2402L32.0557 29.3115ZM15.8906 23.0205L15.1396 24.3193L5.36719 28.5156L2.67188 26.9453L6.84863 19.4111L12.9375 15.2559L15.8906 23.0205ZM46.0742 0.5L39.5791 13.8027L28.1406 18.6553L24.834 9.25293L26.7861 5.78613L35.2129 0.5H46.0742ZM7.05566 0.575195L9.73633 6.92969L0.664062 13.0322V0.575195H7.05566ZM71.3184 0.681641L48.293 10.1172L52.9082 0.537109L71.2031 0.501953L71.3184 0.681641Z" stroke="#DCC160"/>
<path d="M79.665 74.502V76.7324C79.8664 76.7313 80.1247 76.7301 80.4336 76.7285C81.2427 76.7243 82.399 76.7193 83.7861 76.7129C86.5603 76.7 90.2599 76.6842 93.959 76.6738C97.6578 76.6635 101.357 76.6583 104.133 76.666C105.52 76.6699 106.678 76.6771 107.49 76.6885C107.605 76.6901 107.713 76.6935 107.814 76.6953L99.2939 63.3838L79.665 74.502ZM132.574 44.6104L132.292 45.2676L147.711 76.6807H155.956V37.5381L150.101 34.8779L132.574 44.6104ZM120.213 76.624C120.264 76.6239 120.318 76.6241 120.374 76.624C120.944 76.6231 121.758 76.622 122.735 76.6211C124.69 76.6192 127.298 76.6175 129.91 76.6201C132.522 76.6228 135.139 76.629 137.11 76.6426C138.096 76.6494 138.922 76.6581 139.507 76.6689C139.548 76.6697 139.589 76.6711 139.628 76.6719L129.01 54.2139L120.213 76.624ZM79.665 68.7783L96.5146 59.0186L79.665 31.127V68.7783ZM109.101 57.7764L112.613 63.1201L115.802 54.0283L109.101 57.7764ZM79.667 9.62012L79.666 11.5166L106.429 53.6689L118.499 46.8467L121.453 38.1973L112.196 18.3496L81.9971 5.19238L79.667 9.62012ZM135.332 37.4697L144.411 32.3916L138.259 29.6738L135.332 37.4697ZM124.601 29.3115L126.348 24.4033L121.246 22.2402L124.601 29.3115ZM140.766 23.0205L141.517 24.3193L151.289 28.5156L153.984 26.9453L149.808 19.4111L143.719 15.2559L140.766 23.0205ZM110.582 0.5L117.077 13.8027L128.516 18.6553L131.822 9.25293L129.87 5.78613L121.443 0.5H110.582ZM149.601 0.575195L146.92 6.92969L155.992 13.0322V0.575195H149.601ZM85.3379 0.681641L108.363 10.1172L103.748 0.537109L85.4531 0.501953L85.3379 0.681641Z" stroke="#DCC160"/>
</svg>
