<svg width="169" height="48" viewBox="0 0 169 48" fill="none" xmlns="http://www.w3.org/2000/svg">
<rect x="0.173584" width="168" height="48" rx="10" fill="black"/>
<path d="M22.8546 10.4838C22.5331 10.812 22.347 11.3229 22.347 11.9845V35.5839C22.347 36.2455 22.5331 36.7564 22.8546 37.0846L22.934 37.1566L36.4974 23.9376V23.6255L22.934 10.4065L22.8546 10.4838Z" fill="white"/>
<path d="M42.6552 28.3461L38.1391 23.9376V23.6255L42.6607 19.2169L42.7619 19.2743L48.1167 22.2449C49.6449 23.0879 49.6449 24.4752 48.1167 25.3235L42.7619 28.2888L42.6552 28.3461Z" fill="white"/>
<path d="M41.9411 29.1097L37.3182 24.6024L23.6755 37.9054C24.183 38.4257 25.0107 38.4884 25.952 37.9681L41.9411 29.1097Z" fill="white"/>
<path d="M41.9411 18.4534L25.952 9.59495C25.0107 9.08007 24.183 9.14276 23.6755 9.66298L37.3182 22.9607L41.9411 18.4534Z" fill="white"/>
<path d="M64.1523 13.3704C64.1523 14.2615 63.8787 14.9751 63.3396 15.5073C62.7199 16.1383 61.9127 16.4557 60.9236 16.4557C59.9782 16.4557 59.171 16.1329 58.5089 15.4967C57.8453 14.8511 57.5142 14.0587 57.5142 13.1103C57.5142 12.1619 57.8453 11.3696 58.5089 10.7293C59.171 10.0877 59.9782 9.76487 60.9236 9.76487C61.3942 9.76487 61.8429 9.85958 62.2711 10.0357C62.698 10.2131 63.0455 10.4532 63.2972 10.7493L62.7254 11.3122C62.2862 10.8067 61.6883 10.5572 60.9236 10.5572C60.234 10.5572 59.6362 10.792 59.1286 11.2655C58.6265 11.7404 58.3748 12.3553 58.3748 13.1103C58.3748 13.8653 58.6265 14.4856 59.1286 14.9604C59.6362 15.4286 60.234 15.6687 60.9236 15.6687C61.6555 15.6687 62.2712 15.4286 62.7568 14.9551C63.077 14.6416 63.2589 14.2094 63.3068 13.6572H60.9236V12.8862H64.103C64.1413 13.0529 64.1523 13.2143 64.1523 13.3704Z" fill="white"/>
<path d="M69.1965 10.6973H66.2099V12.7248H68.9024V13.4958H66.2099V15.5233H69.1965V16.309H65.3644V9.91159H69.1965V10.6973Z" fill="white"/>
<path d="M72.7563 16.309H71.9108V10.6973H70.0789V9.91159H74.5896V10.6973H72.7563V16.309Z" fill="white"/>
<path d="M77.8539 16.309V9.91159H78.698V16.309H77.8539Z" fill="white"/>
<path d="M82.4398 16.309H81.6011V10.6973H79.7624V9.91159H84.2785V10.6973H82.4398V16.309Z" fill="white"/>
<path d="M92.8183 15.486C92.1711 16.1329 91.3694 16.4557 90.4131 16.4557C89.4513 16.4557 88.6496 16.1329 88.0025 15.486C87.3568 14.8404 87.0353 14.048 87.0353 13.1103C87.0353 12.1726 87.3568 11.3802 88.0025 10.7346C88.6496 10.0877 89.4513 9.76487 90.4131 9.76487C91.3639 9.76487 92.1657 10.0877 92.8128 10.74C93.464 11.3909 93.7855 12.1779 93.7855 13.1103C93.7855 14.048 93.464 14.8404 92.8183 15.486ZM88.6277 14.9498C89.1148 15.4286 89.7072 15.6687 90.4131 15.6687C91.1136 15.6687 91.7115 15.4286 92.193 14.9498C92.6787 14.4709 92.925 13.856 92.925 13.1103C92.925 12.3647 92.6787 11.7497 92.193 11.2709C91.7115 10.792 91.1136 10.5519 90.4131 10.5519C89.7072 10.5519 89.1148 10.792 88.6277 11.2709C88.1421 11.7497 87.8958 12.3647 87.8958 13.1103C87.8958 13.856 88.1421 14.4709 88.6277 14.9498Z" fill="white"/>
<path d="M94.9716 16.309V9.91159H95.9977L99.1882 14.8871H99.2251L99.1882 13.6572V9.91159H100.032V16.309H99.1512L95.8103 11.0881H95.7734L95.8103 12.3233V16.309H94.9716Z" fill="white"/>
<path d="M86.8273 25.6517C84.2566 25.6517 82.1566 27.5592 82.1566 30.191C82.1566 32.8014 84.2566 34.7289 86.8273 34.7289C89.4035 34.7289 91.5035 32.8014 91.5035 30.191C91.5035 27.5592 89.4035 25.6517 86.8273 25.6517ZM86.8273 32.9415C85.4168 32.9415 84.2033 31.8063 84.2033 30.191C84.2033 28.5543 85.4168 27.4391 86.8273 27.4391C88.2378 27.4391 89.4568 28.5543 89.4568 30.191C89.4568 31.8063 88.2378 32.9415 86.8273 32.9415ZM76.6363 25.6517C74.0601 25.6517 71.9656 27.5592 71.9656 30.191C71.9656 32.8014 74.0601 34.7289 76.6363 34.7289C79.2111 34.7289 81.307 32.8014 81.307 30.191C81.307 27.5592 79.2111 25.6517 76.6363 25.6517ZM76.6363 32.9415C75.2244 32.9415 74.0068 31.8063 74.0068 30.191C74.0068 28.5543 75.2244 27.4391 76.6363 27.4391C78.0468 27.4391 79.2603 28.5543 79.2603 30.191C79.2603 31.8063 78.0468 32.9415 76.6363 32.9415ZM64.5094 27.043V28.9718H69.2335C69.0953 30.0496 68.7259 30.8419 68.1595 31.3942C67.47 32.0611 66.396 32.8014 64.5094 32.8014C61.6021 32.8014 59.3256 30.5138 59.3256 27.6792C59.3256 24.8447 61.6021 22.557 64.5094 22.557C66.0813 22.557 67.2251 23.156 68.0692 23.9323L69.4633 22.573C68.2826 21.4739 66.712 20.6295 64.5094 20.6295C60.5227 20.6295 57.1722 23.7922 57.1722 27.6792C57.1722 31.5662 60.5227 34.7289 64.5094 34.7289C66.6641 34.7289 68.2826 34.0406 69.555 32.7494C70.8588 31.4782 71.2651 29.6908 71.2651 28.2475C71.2651 27.7993 71.2268 27.3871 71.1584 27.043H64.5094ZM114.098 28.5383C113.713 27.5232 112.527 25.6517 110.111 25.6517C107.717 25.6517 105.724 27.4912 105.724 30.191C105.724 32.7334 107.696 34.7289 110.341 34.7289C112.479 34.7289 113.713 33.4577 114.221 32.7174L112.634 31.6863C112.104 32.4413 111.383 32.9415 110.341 32.9415C109.305 32.9415 108.562 32.4786 108.086 31.5662L114.313 29.0545L114.098 28.5383ZM107.75 30.0496C107.696 28.2995 109.144 27.4031 110.181 27.4031C110.994 27.4031 111.683 27.7993 111.913 28.3662L107.75 30.0496ZM102.689 34.4528H104.736V21.1138H102.689V34.4528ZM99.3373 26.6628H99.2689C98.8092 26.1319 97.9322 25.6517 96.8213 25.6517C94.4901 25.6517 92.3586 27.6472 92.3586 30.2056C92.3586 32.7494 94.4901 34.7289 96.8213 34.7289C97.9322 34.7289 98.8092 34.2447 99.2689 33.6978H99.3373V34.3488C99.3373 36.0842 98.3865 37.0166 96.8528 37.0166C95.6023 37.0166 94.8266 36.1362 94.5065 35.3959L92.7266 36.1202C93.2396 37.3234 94.5982 38.804 96.8528 38.804C99.2525 38.804 101.277 37.4274 101.277 34.078V25.9278H99.3373V26.6628ZM96.9965 32.9415C95.5859 32.9415 94.4053 31.7903 94.4053 30.2056C94.4053 28.6063 95.5859 27.4391 96.9965 27.4391C98.3865 27.4391 99.4823 28.6063 99.4823 30.2056C99.4823 31.7903 98.3865 32.9415 96.9965 32.9415ZM123.68 21.1138H118.785V34.4528H120.826V29.3986H123.68C125.947 29.3986 128.17 27.7993 128.17 25.2555C128.17 22.7131 125.941 21.1138 123.68 21.1138ZM123.733 27.5432H120.826V22.9692H123.733C125.257 22.9692 126.128 24.2031 126.128 25.2555C126.128 26.288 125.257 27.5432 123.733 27.5432ZM136.351 25.6264C134.877 25.6264 133.343 26.2613 132.712 27.6686L134.524 28.4089C134.914 27.6686 135.63 27.4285 136.388 27.4285C137.447 27.4285 138.521 28.0487 138.538 29.1439V29.2839C138.168 29.0758 137.378 28.7677 136.405 28.7677C134.454 28.7677 132.466 29.8148 132.466 31.769C132.466 33.5564 134.064 34.7076 135.86 34.7076C137.234 34.7076 137.992 34.1033 138.468 33.4003H138.538V34.4315H140.509V29.3146C140.509 26.9496 138.698 25.6264 136.351 25.6264ZM136.105 32.9361C135.438 32.9361 134.507 32.6133 134.507 31.8063C134.507 30.7739 135.667 30.3777 136.672 30.3777C137.57 30.3777 137.992 30.5711 138.538 30.8259C138.378 32.0611 137.287 32.9361 136.105 32.9361ZM147.692 25.9185L145.345 31.701H145.276L142.85 25.9185H140.649L144.293 33.9993L142.214 38.4959H144.347L149.963 25.9185H147.692ZM129.292 34.4528H131.339V21.1138H129.292V34.4528Z" fill="white"/>
</svg>
