<svg width="45" height="44" viewBox="0 0 45 44" fill="none" xmlns="http://www.w3.org/2000/svg">
<g clip-path="url(#clip0_1754_44167)">
<path d="M3.427 1.61108C2.90601 2.29959 2.61597 3.14655 2.61597 4.05292V39.9278C2.61597 40.7697 2.86707 41.5606 3.32059 42.2213L22.8405 21.8608L3.427 1.61108Z" fill="black"/>
<path d="M24.6277 19.9962L30.9602 13.3911L8.70072 0.539699C7.73459 -0.0182232 6.62613 -0.150487 5.59186 0.140224L24.6277 19.9962Z" fill="#7D7D7D"/>
<path d="M24.6277 23.7249L5.39954 43.7812C5.81412 43.9205 6.24313 43.9907 6.67249 43.9907C7.36905 43.9907 8.06595 43.8074 8.70075 43.4408L31.1204 30.4968L24.6277 23.7249Z" fill="#5A5A5A"/>
<path d="M39.7692 18.4771L33.2614 14.7197L26.4153 21.8603L33.4212 29.1683L39.7692 25.5032C41.0394 24.7701 41.7978 23.4565 41.7978 21.9902C41.7978 20.5235 41.0394 19.2103 39.7692 18.4771Z" fill="#A7A6A7"/>
</g>
<defs>
<clipPath id="clip0_1754_44167">
<rect width="43.9141" height="44" fill="white" transform="translate(0.166748 -0.00952148)"/>
</clipPath>
</defs>
</svg>
