<svg width="45" height="44" viewBox="0 0 45 44" fill="none" xmlns="http://www.w3.org/2000/svg">
<g clip-path="url(#clip0_1171_23292)">
<path d="M22.7718 43.9498C10.6617 43.9498 0.794189 34.0822 0.794189 21.927C0.794189 9.81665 10.6617 -0.0510254 22.7718 -0.0510254C34.9267 -0.0510254 44.7493 9.81665 44.7493 21.927C44.7942 34.0822 34.9267 43.9498 22.7718 43.9498Z" fill="white"/>
<mask id="mask0_1171_23292" style="mask-type:alpha" maskUnits="userSpaceOnUse" x="1" y="0" width="44" height="44">
<circle cx="22.8332" cy="21.9899" r="21.2143" fill="#D9D9D9"/>
</mask>
<g mask="url(#mask0_1171_23292)">
<path d="M22.8333 45.4373C35.1662 45.4373 45.1641 35.4394 45.1641 23.1065C45.1641 10.7735 35.1662 0.775635 22.8333 0.775635C10.5003 0.775635 0.502441 10.7735 0.502441 23.1065C0.502441 35.4394 10.5003 45.4373 22.8333 45.4373Z" fill="white"/>
<path d="M22.8333 0.775635C18.4167 0.775635 14.0992 2.08531 10.4269 4.53906C6.75465 6.9928 3.89245 10.4804 2.20228 14.5608C0.512117 18.6412 0.0698923 23.1312 0.931532 27.463C1.79317 31.7947 3.91998 35.7737 7.043 38.8967C10.166 42.0198 14.145 44.1466 18.4767 45.0082C22.8085 45.8698 27.2985 45.4276 31.3789 43.7374C35.4593 42.0473 38.9469 39.1851 41.4007 35.5128C43.8544 31.8405 45.1641 27.5231 45.1641 23.1065C45.1641 17.184 42.8114 11.504 38.6236 7.31618C34.4357 3.12834 28.7558 0.775635 22.8333 0.775635ZM22.8333 8.75106C24.4894 8.75497 26.093 9.33273 27.371 10.386C28.6491 11.4393 29.5225 12.9029 29.8428 14.5278C30.163 16.1527 29.9102 17.8383 29.1274 19.2978C28.3445 20.7572 27.0801 21.9002 25.5493 22.5322C24.0185 23.1642 22.316 23.2461 20.7316 22.7639C19.1472 22.2818 17.7788 21.2655 16.8595 19.8879C15.9402 18.5104 15.5268 16.8568 15.6895 15.2087C15.8523 13.5606 16.5813 12.0198 17.7523 10.8487C18.4199 10.1824 19.2122 9.65423 20.0841 9.2943C20.9559 8.93437 21.8901 8.74978 22.8333 8.75106ZM35.5942 37.3364C32.0962 40.4984 27.5488 42.2491 22.8335 42.2491C18.1182 42.2491 13.5708 40.4984 10.0729 37.3364V36.4109C10.0122 34.2268 10.8158 32.107 12.309 30.512C13.8022 28.917 15.8645 27.9756 18.0478 27.8924H27.6187C29.7921 27.9795 31.8448 28.9153 33.3359 30.4989C34.827 32.0825 35.6378 34.1877 35.5942 36.3624V37.3364Z" fill="black"/>
</g>
<circle cx="35.4048" cy="34.5615" r="7.85714" fill="black" stroke="white" stroke-width="0.785714"/>
<path d="M31.9126 35.2587L33.5848 37.0493C33.6235 37.0909 33.6696 37.1239 33.7203 37.1464C33.771 37.1689 33.8253 37.1805 33.8802 37.1805C33.9351 37.1805 33.9894 37.1689 34.0401 37.1464C34.0908 37.1239 34.1368 37.0909 34.1756 37.0493L38.8967 31.9937V31.9424" stroke="white" stroke-width="1.57143" stroke-linecap="round" stroke-linejoin="round"/>
</g>
<defs>
<clipPath id="clip0_1171_23292">
<rect width="44" height="44.0009" fill="white" transform="translate(0.833252 -0.0100098)"/>
</clipPath>
</defs>
</svg>
