<svg width="110" height="40" viewBox="0 0 110 40" fill="none" xmlns="http://www.w3.org/2000/svg">
<g clip-path="url(#clip0_1901_158206)">
<rect width="110" height="40" rx="16" fill="#42454A"/>
<mask id="path-2-inside-1_1901_158206" fill="white">
<path d="M27.5059 10.0127C28.7664 10.1408 29.75 11.2057 29.75 12.5V16.2139H33.5C34.8807 16.2139 36 17.3332 36 18.7139V27.5C36 28.8807 34.8807 30 33.5 30H24.75C23.3693 30 22.25 28.8807 22.25 27.5V23.7861H18.5C17.1193 23.7861 16 22.6668 16 21.2861V12.5C16 11.1193 17.1193 10 18.5 10H27.25L27.5059 10.0127ZM27.25 23.7861H25.666V26.4668H27.4238V23.7773L27.25 23.7861ZM29.75 21.2861C29.75 21.6449 29.6712 21.9846 29.5352 22.293C29.8525 22.4241 30.0117 22.6552 30.0117 22.9883V26.4668H31.7695V22.9883C31.7695 21.9192 31.0962 21.2845 29.75 21.085V21.2861ZM18.5 11.25C17.8096 11.25 17.25 11.8096 17.25 12.5V21.2861C17.25 21.9765 17.8096 22.5361 18.5 22.5361H27.25C27.9404 22.5361 28.5 21.9765 28.5 21.2861V12.5C28.5 11.8096 27.9404 11.25 27.25 11.25H18.5ZM27.124 21.5H25.0859L24.4385 19.376H21.1855L20.5391 21.5H18.5L21.6494 12.54H23.9629L27.124 21.5ZM29.75 20.29H31.7695V19.1426H29.75V20.29ZM22.7363 14.2061C22.7078 14.3078 22.6771 14.4199 22.6445 14.542C22.5754 14.7902 22.5085 15.0244 22.4434 15.2441C22.3824 15.4638 22.3353 15.6203 22.3027 15.7139L21.6621 17.7891H23.9873L23.3398 15.7139L23.1758 15.1709C23.1188 14.9797 23.0537 14.7635 22.9805 14.5234C22.9073 14.2795 22.852 14.0803 22.8154 13.9258C22.7951 14.007 22.7688 14.1005 22.7363 14.2061Z"/>
</mask>
<path d="M27.5059 10.0127C28.7664 10.1408 29.75 11.2057 29.75 12.5V16.2139H33.5C34.8807 16.2139 36 17.3332 36 18.7139V27.5C36 28.8807 34.8807 30 33.5 30H24.75C23.3693 30 22.25 28.8807 22.25 27.5V23.7861H18.5C17.1193 23.7861 16 22.6668 16 21.2861V12.5C16 11.1193 17.1193 10 18.5 10H27.25L27.5059 10.0127ZM27.25 23.7861H25.666V26.4668H27.4238V23.7773L27.25 23.7861ZM29.75 21.2861C29.75 21.6449 29.6712 21.9846 29.5352 22.293C29.8525 22.4241 30.0117 22.6552 30.0117 22.9883V26.4668H31.7695V22.9883C31.7695 21.9192 31.0962 21.2845 29.75 21.085V21.2861ZM18.5 11.25C17.8096 11.25 17.25 11.8096 17.25 12.5V21.2861C17.25 21.9765 17.8096 22.5361 18.5 22.5361H27.25C27.9404 22.5361 28.5 21.9765 28.5 21.2861V12.5C28.5 11.8096 27.9404 11.25 27.25 11.25H18.5ZM27.124 21.5H25.0859L24.4385 19.376H21.1855L20.5391 21.5H18.5L21.6494 12.54H23.9629L27.124 21.5ZM29.75 20.29H31.7695V19.1426H29.75V20.29ZM22.7363 14.2061C22.7078 14.3078 22.6771 14.4199 22.6445 14.542C22.5754 14.7902 22.5085 15.0244 22.4434 15.2441C22.3824 15.4638 22.3353 15.6203 22.3027 15.7139L21.6621 17.7891H23.9873L23.3398 15.7139L23.1758 15.1709C23.1188 14.9797 23.0537 14.7635 22.9805 14.5234C22.9073 14.2795 22.852 14.0803 22.8154 13.9258C22.7951 14.007 22.7688 14.1005 22.7363 14.2061Z" fill="#F2F3F7"/>
<path d="M27.5059 10.0127L27.6323 8.7691L27.6001 8.76583L27.5678 8.76423L27.5059 10.0127ZM29.75 12.5H31H29.75ZM29.75 16.2139H28.5V17.4639H29.75V16.2139ZM33.5 16.2139V14.9639V16.2139ZM36 18.7139H37.25H36ZM36 27.5L37.25 27.5V27.5H36ZM33.5 30V31.25V30ZM24.75 30V31.25V30ZM22.25 27.5H21V27.5L22.25 27.5ZM22.25 23.7861H23.5V22.5361H22.25V23.7861ZM18.5 23.7861V25.0361V23.7861ZM18.5 10V8.75V10ZM27.25 10L27.3119 8.75154L27.281 8.75H27.25V10ZM27.25 23.7861V25.0361H27.2816L27.3131 25.0345L27.25 23.7861ZM25.666 23.7861V22.5361H24.416V23.7861H25.666ZM25.666 26.4668H24.416V27.7168H25.666V26.4668ZM27.4238 26.4668V27.7168H28.6738V26.4668H27.4238ZM27.4238 23.7773H28.6738V22.4625L27.3607 22.5289L27.4238 23.7773ZM29.5352 22.293L28.3915 21.7884L27.875 22.9593L29.0576 23.4482L29.5352 22.293ZM30.0117 26.4668H28.7617V27.7168H30.0117V26.4668ZM31.7695 26.4668V27.7168H33.0195V26.4668H31.7695ZM29.75 21.085L29.9333 19.8485L28.5 19.636V21.085H29.75ZM18.5 11.25V10V10V11.25ZM18.5 22.5361V23.7861V22.5361ZM27.25 22.5361V23.7861V22.5361ZM28.5 12.5H29.75V12.5L28.5 12.5ZM27.25 11.25V10V11.25ZM27.124 21.5V22.75H28.8905L28.3028 21.0841L27.124 21.5ZM25.0859 21.5L23.8903 21.8645L24.1602 22.75H25.0859V21.5ZM24.4385 19.376L25.6342 19.0115L25.3642 18.126H24.4385V19.376ZM21.1855 19.376V18.126H20.2594L19.9897 19.012L21.1855 19.376ZM20.5391 21.5V22.75H21.4652L21.7349 21.864L20.5391 21.5ZM18.5 21.5L17.3207 21.0855L16.7357 22.75H18.5V21.5ZM21.6494 12.54V11.29H20.7638L20.4701 12.1255L21.6494 12.54ZM23.9629 12.54L25.1417 12.1242L24.8474 11.29H23.9629V12.54ZM29.75 20.29H28.5V21.54H29.75V20.29ZM31.7695 20.29V21.54H33.0195V20.29H31.7695ZM31.7695 19.1426H33.0195V17.8926H31.7695V19.1426ZM29.75 19.1426V17.8926H28.5V19.1426H29.75ZM22.7363 14.2061L21.5416 13.8385L21.5369 13.8537L21.5326 13.869L22.7363 14.2061ZM22.6445 14.542L23.8487 14.8776L23.8523 14.8641L22.6445 14.542ZM22.4434 15.2441L21.2449 14.889L21.2418 14.8993L21.239 14.9096L22.4434 15.2441ZM22.3027 15.7139L21.1221 15.3033L21.1149 15.3241L21.1084 15.3452L22.3027 15.7139ZM21.6621 17.7891L20.4677 17.4203L19.968 19.0391H21.6621V17.7891ZM23.9873 17.7891V19.0391H25.6867L25.1806 17.4168L23.9873 17.7891ZM23.3398 15.7139L22.1432 16.0754L22.1466 16.0862L23.3398 15.7139ZM23.1758 15.1709L21.9778 15.5277L21.9792 15.5325L23.1758 15.1709ZM22.9805 14.5234L21.7832 14.8826L21.7849 14.8882L22.9805 14.5234ZM22.8154 13.9258L24.0318 13.6376L21.6028 13.6226L22.8154 13.9258ZM27.5059 10.0127L27.3795 11.2563C28.0082 11.3202 28.5 11.8534 28.5 12.5H29.75H31C31 10.5579 29.5246 8.96145 27.6323 8.7691L27.5059 10.0127ZM29.75 12.5H28.5V16.2139H29.75H31V12.5H29.75ZM29.75 16.2139V17.4639H33.5V16.2139V14.9639H29.75V16.2139ZM33.5 16.2139V17.4639C34.1904 17.4639 34.75 18.0235 34.75 18.7139H36H37.25C37.25 16.6428 35.5711 14.9639 33.5 14.9639V16.2139ZM36 18.7139H34.75V27.5H36H37.25V18.7139H36ZM36 27.5L34.75 27.5C34.75 28.1904 34.1903 28.75 33.5 28.75V30V31.25C35.5711 31.25 37.25 29.571 37.25 27.5L36 27.5ZM33.5 30V28.75H24.75V30V31.25H33.5V30ZM24.75 30V28.75C24.0597 28.75 23.5 28.1904 23.5 27.5L22.25 27.5L21 27.5C21 29.571 22.6789 31.25 24.75 31.25V30ZM22.25 27.5H23.5V23.7861H22.25H21V27.5H22.25ZM22.25 23.7861V22.5361H18.5V23.7861V25.0361H22.25V23.7861ZM18.5 23.7861V22.5361C17.8096 22.5361 17.25 21.9765 17.25 21.2861H16H14.75C14.75 23.3572 16.4289 25.0361 18.5 25.0361V23.7861ZM16 21.2861H17.25V12.5H16H14.75V21.2861H16ZM16 12.5H17.25C17.25 11.8096 17.8096 11.25 18.5 11.25V10V8.75C16.4289 8.75 14.75 10.4289 14.75 12.5H16ZM18.5 10V11.25H27.25V10V8.75H18.5V10ZM27.25 10L27.1881 11.2485L27.4439 11.2612L27.5059 10.0127L27.5678 8.76423L27.3119 8.75154L27.25 10ZM27.25 23.7861V22.5361H25.666V23.7861V25.0361H27.25V23.7861ZM25.666 23.7861H24.416V26.4668H25.666H26.916V23.7861H25.666ZM25.666 26.4668V27.7168H27.4238V26.4668V25.2168H25.666V26.4668ZM27.4238 26.4668H28.6738V23.7773H27.4238H26.1738V26.4668H27.4238ZM27.4238 23.7773L27.3607 22.5289L27.1869 22.5377L27.25 23.7861L27.3131 25.0345L27.4869 25.0257L27.4238 23.7773ZM29.75 21.2861H28.5C28.5 21.4595 28.4623 21.628 28.3915 21.7884L29.5352 22.293L30.6788 22.7975C30.8801 22.3411 31 21.8303 31 21.2861H29.75ZM29.5352 22.293L29.0576 23.4482C29.0434 23.4423 28.9476 23.3973 28.8618 23.2723C28.7738 23.144 28.7617 23.027 28.7617 22.9883H30.0117H31.2617C31.2617 22.6165 31.17 22.2174 30.923 21.8576C30.6783 21.5009 30.3442 21.2748 30.0127 21.1378L29.5352 22.293ZM30.0117 22.9883H28.7617V26.4668H30.0117H31.2617V22.9883H30.0117ZM30.0117 26.4668V27.7168H31.7695V26.4668V25.2168H30.0117V26.4668ZM31.7695 26.4668H33.0195V22.9883H31.7695H30.5195V26.4668H31.7695ZM31.7695 22.9883H33.0195C33.0195 22.168 32.7488 21.3917 32.1219 20.8009C31.5306 20.2436 30.7462 19.969 29.9333 19.8485L29.75 21.085L29.5667 22.3215C30.1001 22.4005 30.3253 22.543 30.4072 22.6202C30.4536 22.6639 30.5195 22.7396 30.5195 22.9883H31.7695ZM29.75 21.085H28.5V21.2861H29.75H31V21.085H29.75ZM18.5 11.25V10C17.1193 10 16 11.1193 16 12.5H17.25H18.5V11.25ZM17.25 12.5H16V21.2861H17.25H18.5V12.5H17.25ZM17.25 21.2861H16C16 22.6668 17.1193 23.7861 18.5 23.7861V22.5361V21.2861H17.25ZM18.5 22.5361V23.7861H27.25V22.5361V21.2861H18.5V22.5361ZM27.25 22.5361V23.7861C28.6307 23.7861 29.75 22.6668 29.75 21.2861H28.5H27.25V22.5361ZM28.5 21.2861H29.75V12.5H28.5H27.25V21.2861H28.5ZM28.5 12.5L29.75 12.5C29.75 11.1193 28.6307 10 27.25 10V11.25V12.5V12.5L28.5 12.5ZM27.25 11.25V10H18.5V11.25V12.5H27.25V11.25ZM27.124 21.5V20.25H25.0859V21.5V22.75H27.124V21.5ZM25.0859 21.5L26.2816 21.1355L25.6342 19.0115L24.4385 19.376L23.2428 19.7405L23.8903 21.8645L25.0859 21.5ZM24.4385 19.376V18.126H21.1855V19.376V20.626H24.4385V19.376ZM21.1855 19.376L19.9897 19.012L19.3432 21.136L20.5391 21.5L21.7349 21.864L22.3814 19.74L21.1855 19.376ZM20.5391 21.5V20.25H18.5V21.5V22.75H20.5391V21.5ZM18.5 21.5L19.6793 21.9145L22.8287 12.9546L21.6494 12.54L20.4701 12.1255L17.3207 21.0855L18.5 21.5ZM21.6494 12.54V13.79H23.9629V12.54V11.29H21.6494V12.54ZM23.9629 12.54L22.7841 12.9559L25.9452 21.9159L27.124 21.5L28.3028 21.0841L25.1417 12.1242L23.9629 12.54ZM29.75 20.29V21.54H31.7695V20.29V19.04H29.75V20.29ZM31.7695 20.29H33.0195V19.1426H31.7695H30.5195V20.29H31.7695ZM31.7695 19.1426V17.8926H29.75V19.1426V20.3926H31.7695V19.1426ZM29.75 19.1426H28.5V20.29H29.75H31V19.1426H29.75ZM22.7363 14.2061L21.5326 13.869C21.5028 13.9754 21.4707 14.0926 21.4367 14.2199L22.6445 14.542L23.8523 14.8641C23.8835 14.7473 23.9129 14.6401 23.94 14.5431L22.7363 14.2061ZM22.6445 14.542L21.4404 14.2064C21.3725 14.45 21.3076 14.6774 21.2449 14.889L22.4434 15.2441L23.6419 15.5993C23.7094 15.3714 23.7782 15.1304 23.8486 14.8776L22.6445 14.542ZM22.4434 15.2441L21.239 14.9096C21.1789 15.1257 21.1407 15.2497 21.1221 15.3033L22.3027 15.7139L23.4834 16.1245C23.5299 15.9908 23.5858 15.8018 23.6478 15.5787L22.4434 15.2441ZM22.3027 15.7139L21.1084 15.3452L20.4677 17.4203L21.6621 17.7891L22.8565 18.1578L23.4971 16.0826L22.3027 15.7139ZM21.6621 17.7891V19.0391H23.9873V17.7891V16.5391H21.6621V17.7891ZM23.9873 17.7891L25.1806 17.4168L24.5331 15.3416L23.3398 15.7139L22.1466 16.0862L22.794 18.1614L23.9873 17.7891ZM23.3398 15.7139L24.5364 15.3523L24.3724 14.8093L23.1758 15.1709L21.9792 15.5325L22.1433 16.0754L23.3398 15.7139ZM23.1758 15.1709L24.3738 14.8141C24.316 14.6201 24.2501 14.4013 24.1761 14.1587L22.9805 14.5234L21.7849 14.8882C21.8573 15.1257 21.9216 15.3392 21.9778 15.5277L23.1758 15.1709ZM22.9805 14.5234L24.1778 14.1643C24.1075 13.9299 24.0602 13.7575 24.0318 13.6376L22.8154 13.9258L21.5991 14.2139C21.6439 14.4032 21.7071 14.6291 21.7832 14.8826L22.9805 14.5234ZM22.8154 13.9258L21.6028 13.6226C21.5891 13.6774 21.5692 13.7489 21.5416 13.8385L22.7363 14.2061L23.9311 14.5736C23.9684 14.4521 24.0012 14.3367 24.0281 14.229L22.8154 13.9258Z" fill="#F2F3F7" mask="url(#path-2-inside-1_1901_158206)"/>
<path d="M45.0043 25V14.8182H51.6264V16.3643H46.8487V19.1286H51.2834V20.6747H46.8487V23.4538H51.6662V25H45.0043ZM55.2283 20.5256V25H53.4286V17.3636H55.1488V18.6612H55.2383C55.4139 18.2337 55.694 17.8939 56.0785 17.642C56.4663 17.3902 56.9452 17.2642 57.5153 17.2642C58.0423 17.2642 58.5013 17.3769 58.8924 17.6023C59.2868 17.8277 59.5917 18.1541 59.8072 18.5817C60.0259 19.0092 60.1336 19.5279 60.1303 20.1378V25H58.3306V20.4162C58.3306 19.9058 58.198 19.5064 57.9329 19.218C57.671 18.9297 57.3081 18.7855 56.8441 18.7855C56.5292 18.7855 56.2492 18.8551 56.0039 18.9943C55.762 19.1302 55.5714 19.3274 55.4322 19.5859C55.2963 19.8445 55.2283 20.1577 55.2283 20.5256ZM65.2809 28.0227C64.6346 28.0227 64.0794 27.9349 63.6154 27.7592C63.1514 27.5869 62.7785 27.3549 62.4968 27.0632C62.2151 26.7715 62.0195 26.4484 61.9102 26.0938L63.5309 25.701C63.6038 25.8501 63.7099 25.9976 63.8491 26.1435C63.9883 26.2926 64.1755 26.4152 64.4109 26.5114C64.6495 26.6108 64.9495 26.6605 65.3107 26.6605C65.8211 26.6605 66.2437 26.5362 66.5785 26.2876C66.9132 26.0424 67.0806 25.638 67.0806 25.0746V23.6278H66.9911C66.8983 23.8134 66.7624 24.004 66.5835 24.1996C66.4078 24.3951 66.1741 24.5592 65.8825 24.6918C65.5941 24.8243 65.2312 24.8906 64.7937 24.8906C64.207 24.8906 63.6751 24.7531 63.1978 24.478C62.7238 24.1996 62.346 23.7853 62.0643 23.2351C61.7859 22.6816 61.6467 21.9889 61.6467 21.157C61.6467 20.3184 61.7859 19.6108 62.0643 19.0341C62.346 18.4541 62.7255 18.0149 63.2028 17.7166C63.68 17.415 64.212 17.2642 64.7987 17.2642C65.2461 17.2642 65.614 17.3404 65.9023 17.4929C66.194 17.642 66.426 17.8227 66.5984 18.0348C66.7707 18.2436 66.9016 18.4408 66.9911 18.6264H67.0906V17.3636H68.8654V25.1243C68.8654 25.7772 68.7096 26.3175 68.3981 26.745C68.0865 27.1726 67.6606 27.4924 67.1204 27.7045C66.5801 27.9167 65.967 28.0227 65.2809 28.0227ZM65.2958 23.4787C65.677 23.4787 66.0018 23.3859 66.2702 23.2003C66.5387 23.0147 66.7425 22.7479 66.8817 22.3999C67.021 22.0518 67.0906 21.6342 67.0906 21.147C67.0906 20.6664 67.021 20.2455 66.8817 19.8842C66.7459 19.523 66.5437 19.2429 66.2752 19.044C66.0101 18.8419 65.6836 18.7408 65.2958 18.7408C64.8948 18.7408 64.56 18.8452 64.2915 19.054C64.0231 19.2628 63.8209 19.5495 63.685 19.9141C63.5491 20.2753 63.4812 20.6863 63.4812 21.147C63.4812 21.6143 63.5491 22.0237 63.685 22.375C63.8242 22.723 64.0281 22.9948 64.2965 23.1903C64.5683 23.3826 64.9014 23.4787 65.2958 23.4787ZM72.5096 14.8182V25H70.7099V14.8182H72.5096ZM74.3603 25V17.3636H76.16V25H74.3603ZM75.2651 16.2798C74.9801 16.2798 74.7348 16.1854 74.5293 15.9964C74.3238 15.8042 74.2211 15.5739 74.2211 15.3054C74.2211 15.0336 74.3238 14.8033 74.5293 14.6143C74.7348 14.4221 74.9801 14.326 75.2651 14.326C75.5534 14.326 75.7987 14.4221 76.0009 14.6143C76.2064 14.8033 76.3091 15.0336 76.3091 15.3054C76.3091 15.5739 76.2064 15.8042 76.0009 15.9964C75.7987 16.1854 75.5534 16.2798 75.2651 16.2798ZM84.0462 19.3821L82.4055 19.5611C82.3591 19.3954 82.2779 19.2396 82.1619 19.0938C82.0492 18.9479 81.8968 18.8303 81.7045 18.7408C81.5123 18.6513 81.277 18.6065 80.9986 18.6065C80.6241 18.6065 80.3092 18.6877 80.054 18.8501C79.8021 19.0125 79.6778 19.223 79.6811 19.4815C79.6778 19.7036 79.759 19.8842 79.9247 20.0234C80.0938 20.1626 80.3722 20.277 80.7599 20.3665L82.0625 20.6449C82.785 20.8007 83.322 21.0476 83.6733 21.3857C84.0279 21.7237 84.2069 22.1662 84.2102 22.7131C84.2069 23.1937 84.0661 23.6179 83.7876 23.9858C83.5125 24.3504 83.1297 24.6354 82.6392 24.8409C82.1487 25.0464 81.5852 25.1491 80.9489 25.1491C80.0142 25.1491 79.2618 24.9536 78.6918 24.5625C78.1217 24.1681 77.782 23.6196 77.6726 22.9169L79.4276 22.7479C79.5071 23.0926 79.6761 23.3527 79.9347 23.5284C80.1932 23.7041 80.5296 23.7919 80.9439 23.7919C81.3714 23.7919 81.7145 23.7041 81.973 23.5284C82.2348 23.3527 82.3658 23.1357 82.3658 22.8771C82.3658 22.6584 82.2813 22.4777 82.1122 22.3352C81.9465 22.1927 81.688 22.0833 81.3366 22.0071L80.0341 21.7337C79.3016 21.5812 78.7597 21.3243 78.4084 20.9631C78.0571 20.5985 77.883 20.1378 77.8864 19.581C77.883 19.1103 78.0107 18.7027 78.2692 18.358C78.531 18.0099 78.8939 17.7415 79.358 17.5526C79.8253 17.3603 80.3639 17.2642 80.9737 17.2642C81.8686 17.2642 82.5729 17.4548 83.0866 17.8359C83.6037 18.2171 83.9235 18.7325 84.0462 19.3821ZM87.494 20.5256V25H85.6942V14.8182H87.4542V18.6612H87.5437C87.7227 18.2304 87.9994 17.8906 88.3739 17.642C88.7518 17.3902 89.2324 17.2642 89.8157 17.2642C90.346 17.2642 90.8084 17.3752 91.2028 17.5973C91.5972 17.8194 91.9021 18.1442 92.1175 18.5717C92.3363 18.9993 92.4457 19.5213 92.4457 20.1378V25H90.646V20.4162C90.646 19.9025 90.5134 19.5031 90.2482 19.218C89.9864 18.9297 89.6185 18.7855 89.1445 18.7855C88.8263 18.7855 88.5413 18.8551 88.2894 18.9943C88.0408 19.1302 87.8453 19.3274 87.7028 19.5859C87.5636 19.8445 87.494 20.1577 87.494 20.5256Z" fill="#F2F3F7"/>
</g>
<defs>
<clipPath id="clip0_1901_158206">
<rect width="110" height="40" fill="white"/>
</clipPath>
</defs>
</svg>
