<svg width="142" height="142" viewBox="0 0 142 142" fill="none" xmlns="http://www.w3.org/2000/svg">
<g clip-path="url(#clip0_3231_2081)">
<path d="M0 0H5.68V5.68H0V0ZM5.68 0H11.36V5.68H5.68V0ZM11.36 0H17.04V5.68H11.36V0ZM17.04 0H22.72V5.68H17.04V0ZM22.72 0H28.4V5.68H22.72V0ZM28.4 0H34.08V5.68H28.4V0ZM34.08 0H39.76V5.68H34.08V0ZM45.44 0H51.12V5.68H45.44V0ZM56.8 0H62.48V5.68H56.8V0ZM68.16 0H73.84V5.68H68.16V0ZM73.84 0H79.52V5.68H73.84V0ZM90.88 0H96.56V5.68H90.88V0ZM102.24 0H107.92V5.68H102.24V0ZM107.92 0H113.6V5.68H107.92V0ZM113.6 0H119.28V5.68H113.6V0ZM119.28 0H124.96V5.68H119.28V0ZM124.96 0H130.64V5.68H124.96V0ZM130.64 0H136.32V5.68H130.64V0ZM136.32 0H142V5.68H136.32V0ZM0 5.68H5.68V11.36H0V5.68ZM34.08 5.68H39.76V11.36H34.08V5.68ZM51.12 5.68H56.8V11.36H51.12V5.68ZM56.8 5.68H62.48V11.36H56.8V5.68ZM62.48 5.68H68.16V11.36H62.48V5.68ZM68.16 5.68H73.84V11.36H68.16V5.68ZM73.84 5.68H79.52V11.36H73.84V5.68ZM102.24 5.68H107.92V11.36H102.24V5.68ZM136.32 5.68H142V11.36H136.32V5.68ZM0 11.36H5.68V17.04H0V11.36ZM11.36 11.36H17.04V17.04H11.36V11.36ZM17.04 11.36H22.72V17.04H17.04V11.36ZM22.72 11.36H28.4V17.04H22.72V11.36ZM34.08 11.36H39.76V17.04H34.08V11.36ZM45.44 11.36H51.12V17.04H45.44V11.36ZM51.12 11.36H56.8V17.04H51.12V11.36ZM56.8 11.36H62.48V17.04H56.8V11.36ZM73.84 11.36H79.52V17.04H73.84V11.36ZM79.52 11.36H85.2V17.04H79.52V11.36ZM102.24 11.36H107.92V17.04H102.24V11.36ZM113.6 11.36H119.28V17.04H113.6V11.36ZM119.28 11.36H124.96V17.04H119.28V11.36ZM124.96 11.36H130.64V17.04H124.96V11.36ZM136.32 11.36H142V17.04H136.32V11.36ZM0 17.04H5.68V22.72H0V17.04ZM11.36 17.04H17.04V22.72H11.36V17.04ZM17.04 17.04H22.72V22.72H17.04V17.04ZM22.72 17.04H28.4V22.72H22.72V17.04ZM34.08 17.04H39.76V22.72H34.08V17.04ZM45.44 17.04H51.12V22.72H45.44V17.04ZM51.12 17.04H56.8V22.72H51.12V17.04ZM56.8 17.04H62.48V22.72H56.8V17.04ZM68.16 17.04H73.84V22.72H68.16V17.04ZM73.84 17.04H79.52V22.72H73.84V17.04ZM85.2 17.04H90.88V22.72H85.2V17.04ZM90.88 17.04H96.56V22.72H90.88V17.04ZM102.24 17.04H107.92V22.72H102.24V17.04ZM113.6 17.04H119.28V22.72H113.6V17.04ZM119.28 17.04H124.96V22.72H119.28V17.04ZM124.96 17.04H130.64V22.72H124.96V17.04ZM136.32 17.04H142V22.72H136.32V17.04ZM0 22.72H5.68V28.4H0V22.72ZM11.36 22.72H17.04V28.4H11.36V22.72ZM17.04 22.72H22.72V28.4H17.04V22.72ZM22.72 22.72H28.4V28.4H22.72V22.72ZM34.08 22.72H39.76V28.4H34.08V22.72ZM45.44 22.72H51.12V28.4H45.44V22.72ZM62.48 22.72H68.16V28.4H62.48V22.72ZM68.16 22.72H73.84V28.4H68.16V22.72ZM73.84 22.72H79.52V28.4H73.84V22.72ZM79.52 22.72H85.2V28.4H79.52V22.72ZM85.2 22.72H90.88V28.4H85.2V22.72ZM90.88 22.72H96.56V28.4H90.88V22.72ZM102.24 22.72H107.92V28.4H102.24V22.72ZM113.6 22.72H119.28V28.4H113.6V22.72ZM119.28 22.72H124.96V28.4H119.28V22.72ZM124.96 22.72H130.64V28.4H124.96V22.72ZM136.32 22.72H142V28.4H136.32V22.72ZM0 28.4H5.68V34.08H0V28.4ZM34.08 28.4H39.76V34.08H34.08V28.4ZM56.8 28.4H62.48V34.08H56.8V28.4ZM62.48 28.4H68.16V34.08H62.48V28.4ZM79.52 28.4H85.2V34.08H79.52V28.4ZM90.88 28.4H96.56V34.08H90.88V28.4ZM102.24 28.4H107.92V34.08H102.24V28.4ZM136.32 28.4H142V34.08H136.32V28.4ZM0 34.08H5.68V39.76H0V34.08ZM5.68 34.08H11.36V39.76H5.68V34.08ZM11.36 34.08H17.04V39.76H11.36V34.08ZM17.04 34.08H22.72V39.76H17.04V34.08ZM22.72 34.08H28.4V39.76H22.72V34.08ZM28.4 34.08H34.08V39.76H28.4V34.08ZM34.08 34.08H39.76V39.76H34.08V34.08ZM45.44 34.08H51.12V39.76H45.44V34.08ZM56.8 34.08H62.48V39.76H56.8V34.08ZM68.16 34.08H73.84V39.76H68.16V34.08ZM79.52 34.08H85.2V39.76H79.52V34.08ZM90.88 34.08H96.56V39.76H90.88V34.08ZM102.24 34.08H107.92V39.76H102.24V34.08ZM107.92 34.08H113.6V39.76H107.92V34.08ZM113.6 34.08H119.28V39.76H113.6V34.08ZM119.28 34.08H124.96V39.76H119.28V34.08ZM124.96 34.08H130.64V39.76H124.96V34.08ZM130.64 34.08H136.32V39.76H130.64V34.08ZM136.32 34.08H142V39.76H136.32V34.08ZM56.8 39.76H62.48V45.44H56.8V39.76ZM68.16 39.76H73.84V45.44H68.16V39.76ZM85.2 39.76H90.88V45.44H85.2V39.76ZM90.88 39.76H96.56V45.44H90.88V39.76ZM0 45.44H5.68V51.12H0V45.44ZM5.68 45.44H11.36V51.12H5.68V45.44ZM11.36 45.44H17.04V51.12H11.36V45.44ZM17.04 45.44H22.72V51.12H17.04V45.44ZM34.08 45.44H39.76V51.12H34.08V45.44ZM45.44 45.44H51.12V51.12H45.44V45.44ZM56.8 45.44H62.48V51.12H56.8V45.44ZM62.48 45.44H68.16V51.12H62.48V45.44ZM68.16 45.44H73.84V51.12H68.16V45.44ZM79.52 45.44H85.2V51.12H79.52V45.44ZM85.2 45.44H90.88V51.12H85.2V45.44ZM90.88 45.44H96.56V51.12H90.88V45.44ZM96.56 45.44H102.24V51.12H96.56V45.44ZM113.6 45.44H119.28V51.12H113.6V45.44ZM119.28 45.44H124.96V51.12H119.28V45.44ZM124.96 45.44H130.64V51.12H124.96V45.44ZM136.32 45.44H142V51.12H136.32V45.44ZM0 51.12H5.68V56.8H0V51.12ZM5.68 51.12H11.36V56.8H5.68V51.12ZM11.36 51.12H17.04V56.8H11.36V51.12ZM17.04 51.12H22.72V56.8H17.04V51.12ZM22.72 51.12H28.4V56.8H22.72V51.12ZM28.4 51.12H34.08V56.8H28.4V51.12ZM39.76 51.12H45.44V56.8H39.76V51.12ZM56.8 51.12H62.48V56.8H56.8V51.12ZM68.16 51.12H73.84V56.8H68.16V51.12ZM73.84 51.12H79.52V56.8H73.84V51.12ZM107.92 51.12H113.6V56.8H107.92V51.12ZM130.64 51.12H136.32V56.8H130.64V51.12ZM0 56.8H5.68V62.48H0V56.8ZM5.68 56.8H11.36V62.48H5.68V56.8ZM11.36 56.8H17.04V62.48H11.36V56.8ZM28.4 56.8H34.08V62.48H28.4V56.8ZM34.08 56.8H39.76V62.48H34.08V56.8ZM39.76 56.8H45.44V62.48H39.76V56.8ZM45.44 56.8H51.12V62.48H45.44V56.8ZM51.12 56.8H56.8V62.48H51.12V56.8ZM56.8 56.8H62.48V62.48H56.8V56.8ZM62.48 56.8H68.16V62.48H62.48V56.8ZM68.16 56.8H73.84V62.48H68.16V56.8ZM73.84 56.8H79.52V62.48H73.84V56.8ZM90.88 56.8H96.56V62.48H90.88V56.8ZM102.24 56.8H107.92V62.48H102.24V56.8ZM107.92 56.8H113.6V62.48H107.92V56.8ZM5.68 62.48H11.36V68.16H5.68V62.48ZM28.4 62.48H34.08V68.16H28.4V62.48ZM51.12 62.48H56.8V68.16H51.12V62.48ZM56.8 62.48H62.48V68.16H56.8V62.48ZM73.84 62.48H79.52V68.16H73.84V62.48ZM85.2 62.48H90.88V68.16H85.2V62.48ZM90.88 62.48H96.56V68.16H90.88V62.48ZM102.24 62.48H107.92V68.16H102.24V62.48ZM113.6 62.48H119.28V68.16H113.6V62.48ZM119.28 62.48H124.96V68.16H119.28V62.48ZM124.96 62.48H130.64V68.16H124.96V62.48ZM5.68 68.16H11.36V73.84H5.68V68.16ZM11.36 68.16H17.04V73.84H11.36V68.16ZM34.08 68.16H39.76V73.84H34.08V68.16ZM51.12 68.16H56.8V73.84H51.12V68.16ZM56.8 68.16H62.48V73.84H56.8V68.16ZM68.16 68.16H73.84V73.84H68.16V68.16ZM73.84 68.16H79.52V73.84H73.84V68.16ZM79.52 68.16H85.2V73.84H79.52V68.16ZM96.56 68.16H102.24V73.84H96.56V68.16ZM102.24 68.16H107.92V73.84H102.24V68.16ZM113.6 68.16H119.28V73.84H113.6V68.16ZM124.96 68.16H130.64V73.84H124.96V68.16ZM130.64 68.16H136.32V73.84H130.64V68.16ZM136.32 68.16H142V73.84H136.32V68.16ZM11.36 73.84H17.04V79.52H11.36V73.84ZM22.72 73.84H28.4V79.52H22.72V73.84ZM28.4 73.84H34.08V79.52H28.4V73.84ZM39.76 73.84H45.44V79.52H39.76V73.84ZM51.12 73.84H56.8V79.52H51.12V73.84ZM62.48 73.84H68.16V79.52H62.48V73.84ZM68.16 73.84H73.84V79.52H68.16V73.84ZM73.84 73.84H79.52V79.52H73.84V73.84ZM79.52 73.84H85.2V79.52H79.52V73.84ZM85.2 73.84H90.88V79.52H85.2V73.84ZM90.88 73.84H96.56V79.52H90.88V73.84ZM96.56 73.84H102.24V79.52H96.56V73.84ZM102.24 73.84H107.92V79.52H102.24V73.84ZM107.92 73.84H113.6V79.52H107.92V73.84ZM113.6 73.84H119.28V79.52H113.6V73.84ZM136.32 73.84H142V79.52H136.32V73.84ZM5.68 79.52H11.36V85.2H5.68V79.52ZM11.36 79.52H17.04V85.2H11.36V79.52ZM22.72 79.52H28.4V85.2H22.72V79.52ZM28.4 79.52H34.08V85.2H28.4V79.52ZM34.08 79.52H39.76V85.2H34.08V79.52ZM51.12 79.52H56.8V85.2H51.12V79.52ZM62.48 79.52H68.16V85.2H62.48V79.52ZM73.84 79.52H79.52V85.2H73.84V79.52ZM90.88 79.52H96.56V85.2H90.88V79.52ZM96.56 79.52H102.24V85.2H96.56V79.52ZM113.6 79.52H119.28V85.2H113.6V79.52ZM124.96 79.52H130.64V85.2H124.96V79.52ZM130.64 79.52H136.32V85.2H130.64V79.52ZM0 85.2H5.68V90.88H0V85.2ZM11.36 85.2H17.04V90.88H11.36V85.2ZM17.04 85.2H22.72V90.88H17.04V85.2ZM62.48 85.2H68.16V90.88H62.48V85.2ZM90.88 85.2H96.56V90.88H90.88V85.2ZM96.56 85.2H102.24V90.88H96.56V85.2ZM102.24 85.2H107.92V90.88H102.24V85.2ZM107.92 85.2H113.6V90.88H107.92V85.2ZM113.6 85.2H119.28V90.88H113.6V85.2ZM136.32 85.2H142V90.88H136.32V85.2ZM17.04 90.88H22.72V96.56H17.04V90.88ZM22.72 90.88H28.4V96.56H22.72V90.88ZM34.08 90.88H39.76V96.56H34.08V90.88ZM51.12 90.88H56.8V96.56H51.12V90.88ZM56.8 90.88H62.48V96.56H56.8V90.88ZM73.84 90.88H79.52V96.56H73.84V90.88ZM79.52 90.88H85.2V96.56H79.52V90.88ZM85.2 90.88H90.88V96.56H85.2V90.88ZM90.88 90.88H96.56V96.56H90.88V90.88ZM96.56 90.88H102.24V96.56H96.56V90.88ZM102.24 90.88H107.92V96.56H102.24V90.88ZM107.92 90.88H113.6V96.56H107.92V90.88ZM113.6 90.88H119.28V96.56H113.6V90.88ZM119.28 90.88H124.96V96.56H119.28V90.88ZM124.96 90.88H130.64V96.56H124.96V90.88ZM130.64 90.88H136.32V96.56H130.64V90.88ZM136.32 90.88H142V96.56H136.32V90.88ZM45.44 96.56H51.12V102.24H45.44V96.56ZM51.12 96.56H56.8V102.24H51.12V96.56ZM73.84 96.56H79.52V102.24H73.84V96.56ZM79.52 96.56H85.2V102.24H79.52V96.56ZM90.88 96.56H96.56V102.24H90.88V96.56ZM113.6 96.56H119.28V102.24H113.6V96.56ZM124.96 96.56H130.64V102.24H124.96V96.56ZM136.32 96.56H142V102.24H136.32V96.56ZM0 102.24H5.68V107.92H0V102.24ZM5.68 102.24H11.36V107.92H5.68V102.24ZM11.36 102.24H17.04V107.92H11.36V102.24ZM17.04 102.24H22.72V107.92H17.04V102.24ZM22.72 102.24H28.4V107.92H22.72V102.24ZM28.4 102.24H34.08V107.92H28.4V102.24ZM34.08 102.24H39.76V107.92H34.08V102.24ZM51.12 102.24H56.8V107.92H51.12V102.24ZM68.16 102.24H73.84V107.92H68.16V102.24ZM79.52 102.24H85.2V107.92H79.52V102.24ZM90.88 102.24H96.56V107.92H90.88V102.24ZM102.24 102.24H107.92V107.92H102.24V102.24ZM113.6 102.24H119.28V107.92H113.6V102.24ZM124.96 102.24H130.64V107.92H124.96V102.24ZM130.64 102.24H136.32V107.92H130.64V102.24ZM136.32 102.24H142V107.92H136.32V102.24ZM0 107.92H5.68V113.6H0V107.92ZM34.08 107.92H39.76V113.6H34.08V107.92ZM56.8 107.92H62.48V113.6H56.8V107.92ZM62.48 107.92H68.16V113.6H62.48V107.92ZM85.2 107.92H90.88V113.6H85.2V107.92ZM90.88 107.92H96.56V113.6H90.88V107.92ZM113.6 107.92H119.28V113.6H113.6V107.92ZM0 113.6H5.68V119.28H0V113.6ZM11.36 113.6H17.04V119.28H11.36V113.6ZM17.04 113.6H22.72V119.28H17.04V113.6ZM22.72 113.6H28.4V119.28H22.72V113.6ZM34.08 113.6H39.76V119.28H34.08V113.6ZM51.12 113.6H56.8V119.28H51.12V113.6ZM62.48 113.6H68.16V119.28H62.48V113.6ZM68.16 113.6H73.84V119.28H68.16V113.6ZM79.52 113.6H85.2V119.28H79.52V113.6ZM90.88 113.6H96.56V119.28H90.88V113.6ZM96.56 113.6H102.24V119.28H96.56V113.6ZM102.24 113.6H107.92V119.28H102.24V113.6ZM107.92 113.6H113.6V119.28H107.92V113.6ZM113.6 113.6H119.28V119.28H113.6V113.6ZM119.28 113.6H124.96V119.28H119.28V113.6ZM136.32 113.6H142V119.28H136.32V113.6ZM0 119.28H5.68V124.96H0V119.28ZM11.36 119.28H17.04V124.96H11.36V119.28ZM17.04 119.28H22.72V124.96H17.04V119.28ZM22.72 119.28H28.4V124.96H22.72V119.28ZM34.08 119.28H39.76V124.96H34.08V119.28ZM45.44 119.28H51.12V124.96H45.44V119.28ZM51.12 119.28H56.8V124.96H51.12V119.28ZM56.8 119.28H62.48V124.96H56.8V119.28ZM62.48 119.28H68.16V124.96H62.48V119.28ZM73.84 119.28H79.52V124.96H73.84V119.28ZM96.56 119.28H102.24V124.96H96.56V119.28ZM102.24 119.28H107.92V124.96H102.24V119.28ZM113.6 119.28H119.28V124.96H113.6V119.28ZM119.28 119.28H124.96V124.96H119.28V119.28ZM124.96 119.28H130.64V124.96H124.96V119.28ZM130.64 119.28H136.32V124.96H130.64V119.28ZM136.32 119.28H142V124.96H136.32V119.28ZM0 124.96H5.68V130.64H0V124.96ZM11.36 124.96H17.04V130.64H11.36V124.96ZM17.04 124.96H22.72V130.64H17.04V124.96ZM22.72 124.96H28.4V130.64H22.72V124.96ZM34.08 124.96H39.76V130.64H34.08V124.96ZM45.44 124.96H51.12V130.64H45.44V124.96ZM51.12 124.96H56.8V130.64H51.12V124.96ZM56.8 124.96H62.48V130.64H56.8V124.96ZM62.48 124.96H68.16V130.64H62.48V124.96ZM90.88 124.96H96.56V130.64H90.88V124.96ZM96.56 124.96H102.24V130.64H96.56V124.96ZM102.24 124.96H107.92V130.64H102.24V124.96ZM113.6 124.96H119.28V130.64H113.6V124.96ZM124.96 124.96H130.64V130.64H124.96V124.96ZM130.64 124.96H136.32V130.64H130.64V124.96ZM0 130.64H5.68V136.32H0V130.64ZM34.08 130.64H39.76V136.32H34.08V130.64ZM45.44 130.64H51.12V136.32H45.44V130.64ZM51.12 130.64H56.8V136.32H51.12V130.64ZM62.48 130.64H68.16V136.32H62.48V130.64ZM68.16 130.64H73.84V136.32H68.16V130.64ZM73.84 130.64H79.52V136.32H73.84V130.64ZM79.52 130.64H85.2V136.32H79.52V130.64ZM96.56 130.64H102.24V136.32H96.56V130.64ZM102.24 130.64H107.92V136.32H102.24V130.64ZM113.6 130.64H119.28V136.32H113.6V130.64ZM124.96 130.64H130.64V136.32H124.96V130.64ZM0 136.32H5.68V142H0V136.32ZM5.68 136.32H11.36V142H5.68V136.32ZM11.36 136.32H17.04V142H11.36V136.32ZM17.04 136.32H22.72V142H17.04V136.32ZM22.72 136.32H28.4V142H22.72V136.32ZM28.4 136.32H34.08V142H28.4V136.32ZM34.08 136.32H39.76V142H34.08V136.32ZM45.44 136.32H51.12V142H45.44V136.32ZM51.12 136.32H56.8V142H51.12V136.32ZM73.84 136.32H79.52V142H73.84V136.32ZM79.52 136.32H85.2V142H79.52V136.32ZM102.24 136.32H107.92V142H102.24V136.32ZM107.92 136.32H113.6V142H107.92V136.32ZM113.6 136.32H119.28V142H113.6V136.32ZM119.28 136.32H124.96V142H119.28V136.32ZM124.96 136.32H130.64V142H124.96V136.32ZM130.64 136.32H136.32V142H130.64V136.32ZM136.32 136.32H142V142H136.32V136.32Z" fill="black"/>
</g>
<defs>
<clipPath id="clip0_3231_2081">
<rect width="142" height="142" fill="white"/>
</clipPath>
</defs>
</svg>
